PathFileType	4	(X/Y/Z)	Patient4_TMGait_0pt8_01_right_43.trc.trc
DataRate	CameraRate	NumFrames	NumMarkers	Units	OrigDataRate	OrigDataStartFrame	OrigNumFrames
85.365853658537	85.365853658537	6	33	mm	85.365853658537	36	       141
Frame#	Time	Sacral			L.Shoulder			Chest			R.Shoulder			Neck			R.ASIS			L.ASIS			R.Thigh.Superior			R.Thigh.Lateral			R.Thigh.Inferior			R.Patella			L.Thigh.Superior			L.Thigh.Lateral			L.Thigh.Inferior			L.Patella			L.Shank.Superior			L.Shank.Lateral			L.Shank.Inferior			R.Shank.Superior			R.Shank.Lateral			R.Shank.Inferior			R.Heel			R.Midfoot.Superior			R.Midfoot.Lateral			R.Toe			L.Heel			L.Midfoot.Lateral			L.Midfoot.Superior			L.Toe			L.Elbow			L.Wrist			R.Elbow			R.Wrist			
		X1	Y1	Z1	X2	Y2	Z2	X3	Y3	Z3	X4	Y4	Z4	X5	Y5	Z5	X6	Y6	Z6	X7	Y7	Z7	X8	Y8	Z8	X9	Y9	Z9	X10	Y10	Z10	X11	Y11	Z11	X12	Y12	Z12	X13	Y13	Z13	X14	Y14	Z14	X15	Y15	Z15	X16	Y16	Z16	X17	Y17	Z17	X18	Y18	Z18	X19	Y19	Z19	X20	Y20	Z20	X21	Y21	Z21	X22	Y22	Z22	X23	Y23	Z23	X24	Y24	Z24	X25	Y25	Z25	X26	Y26	Z26	X27	Y27	Z27	X28	Y28	Z28	X29	Y29	Z29	X30	Y30	Z30	X31	Y31	Z31	X32	Y32	Z32	X33	Y33	Z33	

36	48.700000000000	936.271996694965	994.704636560937	485.909089525526	1113.202207427439	1425.089119865613	307.755430372469	1211.606918190710	1355.708175780694	472.111179099807	1121.632773498931	1427.037635340909	643.523000982789	1091.293540866573	1484.882143560314	463.061161503301	1164.480787971405	933.452404771794	605.827954586698	1147.883114199339	952.015179827375	326.752369225308	1234.732108674768	751.554220672409	578.520028837635	1170.794787261521	632.382339243627	638.066334991621	1259.146580586267	592.479577135705	561.727441501897	1274.954026082336	503.251040219467	570.460280533499	1169.752655201017	725.996236043753	349.587663820664	1064.826834126909	621.434056459027	286.971253520171	1143.347361032732	527.264895080325	340.593002419760	1126.675301231216	443.826572289545	338.173510486424	1054.893532952918	391.347559722665	335.598134617444	911.697881580405	353.893327057944	289.874824312829	894.385596512362	227.049402880961	349.400378229953	1253.003078962923	411.690793407781	577.375418490367	1188.512625338106	302.449868705339	638.000654426723	1241.965723675256	211.247555959925	577.580011675656	1120.806531552047	42.703770849272	544.819931920607	1290.058116090727	98.625304456797	581.892232782916	1203.634926674404	37.292742081398	620.827235918616	1410.909089196860	50.404756647790	610.935520350600	702.097208734301	165.449249427671	393.682694993202	757.460916185523	115.968581314472	315.152769467051	862.442651486262	126.360432014349	333.853633706238	939.670384487690	31.179910154191	311.123212214893	1153.338397672204	1093.475301224952	158.568304283307	1406.089350756870	1115.822088051124	180.211260988541	984.540734110606	1108.676322401636	745.596149342382	944.068578200869	851.670670083156	757.041985528020	
37	48.711714285714	936.366409137369	996.588327839448	489.374955770259	1112.326719716734	1426.936128729922	310.193891945926	1212.202320025461	1357.252400125213	473.587500677098	1123.911249361022	1428.530324146831	645.792085739299	1091.769597950781	1486.508429056803	465.630120788080	1165.127638804194	935.195655766952	608.102038792410	1147.270112571592	953.702458474194	329.478968435698	1233.103840288899	750.710551834965	582.271530054980	1166.401053626517	632.639879403957	640.117995818722	1254.516790118923	591.720552623928	563.880076640406	1268.781384776745	502.517184123221	571.826215959172	1175.443141944983	729.239091938128	352.291812362514	1075.318930435861	621.452952090555	288.803316034385	1157.050322338532	529.358664753830	342.649618442153	1141.594336652299	444.496015756041	339.645068844481	1067.705008128546	392.334854868782	337.232938516517	923.071891930805	360.307188041115	291.606996799997	901.100018673926	234.209303391322	350.915198022209	1246.153258184543	411.273108107808	578.715446689587	1180.822749720219	302.383986171074	638.992836960130	1233.559084213232	210.951870941899	578.213774379194	1111.495866160650	42.655730202321	545.001601441807	1280.693668003748	98.590552103271	582.091577557455	1194.273197075742	37.339184444119	621.011492576039	1401.513813775722	50.454482855724	611.193595049665	706.869711019549	182.916154693887	395.493239659698	758.980474491618	130.194594195964	316.613619496676	864.795235838861	133.776787647593	334.962809055673	935.046031314425	31.159420864562	311.482608041381	1143.910315064306	1092.459578899821	163.944882445929	1397.564357506628	1105.661299957611	184.523627742995	994.394030898521	1106.300117862168	749.556657913340	963.757453404735	847.888008343526	760.585217981201	
38	48.723428571429	936.282533890682	998.343352697763	492.742450828295	1111.061094900260	1428.623084188609	312.532928330111	1212.590057456313	1358.619834125209	474.823896292083	1126.203645244056	1429.800813723815	647.944149794524	1092.110446295723	1487.984666469904	468.134232787804	1165.579970087243	936.760898612905	610.099290076881	1146.549885264081	955.198499617227	332.093890078146	1230.997255618445	749.712561205281	585.723505414366	1161.683958824507	632.839893774920	642.084808632584	1249.423405275426	590.886898305306	565.840707325138	1262.105725613154	501.760697669936	573.108595397294	1181.007913725286	732.792748277204	354.886739798364	1085.925537204708	621.911595891523	290.496356406177	1170.723487626551	532.092941554711	344.762265814938	1156.709342403651	445.881582278550	341.285853127470	1081.034680673522	393.854071854855	338.928621606540	935.230424815237	366.778697523056	293.459315212531	909.017410313380	241.506061365354	352.637259036510	1238.941666327138	410.840671167994	579.959114645916	1172.926417854901	302.246495888622	639.904115161353	1225.010591688900	210.644184165970	578.776719205820	1102.149685075598	42.625962394656	545.166244276582	1271.370829994671	98.512624810472	582.336066650225	1184.885596682157	37.349464585690	621.163151238227	1392.122902827817	50.315835169108	611.411941334887	713.431608480586	199.568044073008	397.571899662253	762.507138788659	144.172688270478	318.327093073442	868.792274311938	141.625918552512	336.412976184621	932.608630619514	31.957351173997	312.060064962901	1134.307299279725	1091.572197681813	169.264542026208	1388.652004509642	1094.046638715840	188.788726539327	1004.557013487217	1103.893990176515	753.539269780544	984.701433136183	844.326264646739	764.076705992100	
39	48.735142857143	936.043065928671	999.945692856504	495.998744210912	1109.434434228856	1430.146433327764	314.762499807585	1212.771565022283	1359.802781801434	475.820088843893	1128.486885477665	1430.840761806478	649.967619496252	1092.328922010481	1489.314964204813	470.552782822049	1165.849491661833	938.161251164202	611.847153467859	1145.720023920731	956.473574928431	334.570612931630	1228.470432627193	748.674192473410	588.737536549907	1156.810480753989	633.036252208947	643.980158048535	1243.985014132138	590.026140790974	567.585139204538	1255.051978612989	501.013761726973	574.314782836630	1186.335833187928	736.667752611654	357.386314028162	1096.461542011418	622.891641418879	292.049413567503	1184.158521836767	535.513423990820	346.863472278948	1171.824457501586	448.042441982215	342.971070968682	1094.716428468929	395.943724064591	340.589838438359	947.973319273197	373.180717314001	295.384441799537	918.127413240620	248.712119329345	354.480567771318	1231.482454205319	410.412311716656	581.103654122963	1164.923858519155	302.072064189919	640.756195883152	1216.376755857259	210.336933763831	579.273482643752	1092.774154276403	42.625178404166	545.328863685526	1262.098455265283	98.415238568348	582.633778463109	1175.479167285703	37.336562471545	621.298538953617	1382.743277965565	50.011570098139	611.602115624726	721.685484787036	214.758582145438	399.828454794340	768.110526839338	157.283807973000	320.235504822220	874.572358961243	149.568827632935	338.128410879132	932.810473306645	33.664183014935	312.887503954781	1124.631802486936	1090.791948527566	174.515951233714	1379.259489688565	1081.008464557237	192.978923896421	1015.068426522325	1101.451286165083	757.488574147645	1006.817701183087	841.100273807193	767.454410147166	
40	48.746857142857	935.671837132181	1001.385064923365	499.139724428157	1107.489070481120	1431.518850498794	316.875689229599	1212.751781166435	1360.814260125832	476.586779391460	1130.727382685646	1431.666534573018	651.851590707543	1092.435203229025	1490.515181176313	472.864608340789	1165.953370802038	939.420663057084	613.390610174960	1144.767208370664	957.526240064275	336.887759305004	1225.595256891362	747.686875263674	591.231079050916	1151.893388018395	633.261385355041	645.808092605031	1238.296392087015	589.167246924730	569.105945784464	1247.725786088305	500.300209558800	575.438634095187	1191.344653625748	740.867271866588	359.801180660757	1106.764727266794	624.444691965096	293.464597001269	1197.192365577478	539.638955034369	348.874429263762	1186.779735664969	451.016131296738	344.573897724384	1108.615651330427	398.614541740669	342.129179303776	961.131084960625	379.362982397410	297.320697331617	928.424009185439	255.585503826873	356.359309834212	1223.864673436508	410.002246712048	582.147613937398	1156.875193484297	301.889653252567	641.555063888550	1207.696776287171	210.041483291498	579.710270493242	1083.376752390338	42.657011164529	545.496298294343	1252.875849025452	98.323543941489	582.983212754538	1166.061127812546	37.313069301569	621.428198667358	1373.377906301109	49.583861397844	611.775302831397	731.514920327477	227.916435433393	402.171340879932	775.810777725291	168.954302183813	322.270008882788	882.248253822350	157.233630154411	340.018642585756	936.028834539300	36.236286307879	313.964220284898	1114.981527883331	1090.105203834814	179.701068867365	1369.265088456009	1066.591859083959	197.068157162490	1025.981347584746	1098.981979839003	761.344611521522	1030.035124575722	838.336620095900	770.650225783343	
41	48.758571428571	935.192183180304	1002.664325680816	502.166841034655	1105.277397891049	1432.761687504466	318.869557291392	1212.539356473109	1361.681864196906	477.145825488063	1132.885337595400	1432.312703273568	653.588223725329	1092.435996687544	1491.606381056544	475.051801594014	1165.913138235762	940.565961953288	614.779218337970	1143.672080438079	958.381097985935	339.030481151388	1222.449338860740	746.808427427905	593.181054104906	1146.992418569452	633.528339207505	647.562685178678	1232.424672024470	588.322457706245	570.409829581274	1240.209193850470	499.635115004631	576.465809077644	1195.980377945906	745.381835298463	362.133423721902	1116.699725065675	626.586603603027	294.747178656113	1209.705549134952	544.458419132894	350.717547243362	1201.449586076628	454.814010801361	345.988181094992	1122.627457004884	401.847526663831	343.481693961060	974.569480474187	385.158481457778	299.200443076307	939.898049365095	261.886232840577	358.197531466145	1216.149293609181	409.619511847887	583.088822354327	1148.807986475169	301.720479932171	642.296569511780	1198.993729193853	209.766702061177	580.092289682241	1073.963918364743	42.719231863146	545.667839011106	1243.694151220788	98.256608470766	583.372918001283	1156.637570434982	37.289125239331	621.557075140969	1364.026467320375	49.081735800148	611.939816144745	742.801558237798	238.583793612995	404.517011265425	785.582151368739	178.702525777097	324.355428348620	891.893430299304	164.249093973316	341.985523800911	942.523105274109	39.487436673178	315.247904332491	1105.449754593638	1089.504248624201	184.830664688418	1358.520739447834	1050.865883558149	201.036510438089	1037.346678584993	1096.517647490238	765.045787552917	1054.283325300180	836.174029240364	773.592531536601	
